<svg xmlns="http://www.w3.org/2000/svg" width="20.489" height="27" viewBox="0 0 20.489 27">
  <path id="add-file-svgrepo-com" d="M49.963,3.375h-3.3V.244ZM48.026,18.409a4.3,4.3,0,1,1-4.3,4.3A4.3,4.3,0,0,1,48.026,18.409Zm-.085,1.841a.767.767,0,0,0-.767.767v.972h-.835a.767.767,0,1,0,0,1.534h.835v.869a.767.767,0,1,0,1.534,0v-.869h1.006a.767.767,0,0,0,0-1.534H48.708v-.972A.767.767,0,0,0,47.941,20.25Zm-5.168,4.981-10.158-.046a.8.8,0,0,1-.782-.793V.767a.8.8,0,0,1,.8-.767H45.128V4.142a.8.8,0,0,0,.8.767h4.313V17.327a5.432,5.432,0,0,0-2.233-.452,5.814,5.814,0,0,0-5.236,8.356ZM35.089,7.824a.767.767,0,0,0,.767.767H45.981a.767.767,0,1,0,0-1.534H35.856A.767.767,0,0,0,35.089,7.824Zm0,3.17a.767.767,0,0,0,.767.767H45.981a.767.767,0,1,0,0-1.534H35.856A.767.767,0,0,0,35.089,10.994Zm.767,4.142H45.981a.767.767,0,1,0,0-1.534H35.856a.767.767,0,0,0,0,1.534Z" transform="translate(-31.833)" fill="#757575"/>
</svg>
