<svg xmlns="http://www.w3.org/2000/svg" width="26.998" height="46.076" viewBox="0 0 26.998 46.076">
  <g id="growth-investment-svgrepo-com" transform="translate(-105.997)">
    <circle id="Ellipse_7" data-name="Ellipse 7" cx="7.377" cy="7.377" r="7.377" transform="translate(112.119 6.122)" fill="#40a919"/>
    <g id="Group_48" data-name="Group 48" transform="translate(112.974 4.82)">
      <path id="Path_49" data-name="Path 49" d="M190.046,70.921a8.654,8.654,0,0,1-6.14-2.539,1.307,1.307,0,0,1,1.848-1.848,6.07,6.07,0,1,0,0-8.584,1.307,1.307,0,0,1-1.848-1.848,8.683,8.683,0,1,1,6.14,14.819Z" transform="translate(-183.524 -53.563)" fill="#ffc61b"/>
      <path id="Path_50" data-name="Path 50" d="M228.675,102.037v-2.1c.839.147.965.612.984.885a.133.133,0,0,0,.133.124h.916a.134.134,0,0,0,.134-.142,2.176,2.176,0,0,0-2.166-2.06v-.706a.133.133,0,0,0-.133-.133h-.916a.133.133,0,0,0-.133.133v.706a2.2,2.2,0,0,0,0,4.4v2.1c-.839-.147-.965-.612-.984-.885a.133.133,0,0,0-.133-.124h-.916a.134.134,0,0,0-.134.142,2.176,2.176,0,0,0,2.166,2.06v.706a.133.133,0,0,0,.133.133h.916a.133.133,0,0,0,.133-.133v-.706a2.2,2.2,0,0,0,0-4.4Zm-1.182-.082c-.987-.173-.987-.786-.987-1.009s0-.836.987-1.009Zm1.182,3.294V103.23c.987.173.987.786.987,1.009S229.662,105.076,228.675,105.249Z" transform="translate(-221.561 -93.914)" fill="#161816"/>
    </g>
    <path id="Path_52" data-name="Path 52" d="M119.5,0a13.5,13.5,0,0,0-1.307,26.935V31c-2.86-2.108-7.311-1.291-7.513-1.253a1.306,1.306,0,0,0-1.038,1.038c-.042.218-.988,5.365,1.791,8.144a1.307,1.307,0,1,0,1.848-1.848c-1.183-1.183-1.295-3.444-1.187-4.882,1.439-.108,3.7,0,4.882,1.187a5.749,5.749,0,0,1,1.217,3.938v7.449a1.307,1.307,0,1,0,2.613,0V40.878c.278.018.588.03.918.03a8.254,8.254,0,0,0,5.842-1.982c2.779-2.779,1.833-7.926,1.791-8.144a1.306,1.306,0,0,0-1.038-1.038,13.449,13.449,0,0,0-2.3-.191,8.885,8.885,0,0,0-5.21,1.44v-4.06a13.559,13.559,0,0,0,8.545-4.205,1.307,1.307,0,0,0-1.907-1.787,10.783,10.783,0,0,1-7.945,3.444A10.886,10.886,0,1,1,130.382,13.5a1.307,1.307,0,0,0,2.613,0A13.514,13.514,0,0,0,119.5,0Zm2.523,33.383a5.79,5.79,0,0,1,3.993-1.217c.327,0,.629.014.889.034.107,1.439-.005,3.7-1.187,4.878a5.791,5.791,0,0,1-3.994,1.217c-.327,0-.629-.014-.888-.034-.017-.223-.027-.468-.03-.723V37.28A5.731,5.731,0,0,1,122.02,33.383Z" transform="translate(0 0)" fill="#ffc61b"/>
  </g>
</svg>
