<svg xmlns="http://www.w3.org/2000/svg" width="21.736" height="18.129" viewBox="0 0 21.736 18.129">
  <g id="chatting-talk-svgrepo-com" transform="translate(0 -42.485)">
    <g id="Group_703" data-name="Group 703" transform="translate(0 42.485)">
      <g id="Group_702" data-name="Group 702" transform="translate(0 0)">
        <path id="Path_1686" data-name="Path 1686" d="M15.8,42.485H1.773A1.775,1.775,0,0,0,0,44.259V55.6a1.775,1.775,0,0,0,1.773,1.774H3.814L2.85,59.448a.694.694,0,0,0,.933.916l6.125-2.987H15.8A1.775,1.775,0,0,0,17.574,55.6V44.259A1.776,1.776,0,0,0,15.8,42.485ZM13.921,53.631H3.654a.694.694,0,0,1,0-1.387H13.921a.694.694,0,1,1,0,1.387Zm0-3.006H3.654a.694.694,0,1,1,0-1.387H13.921a.694.694,0,1,1,0,1.387Zm0-3.006H3.654a.694.694,0,1,1,0-1.387H13.921a.694.694,0,1,1,0,1.387Z" transform="translate(0 -42.485)"/>
      </g>
    </g>
    <g id="Group_705" data-name="Group 705" transform="translate(8.131 45.722)">
      <g id="Group_704" data-name="Group 704" transform="translate(0 0)">
        <path id="Path_1687" data-name="Path 1687" d="M203.353,118.74h-.772a.231.231,0,0,0-.231.231v9.649a3.164,3.164,0,0,1-3.16,3.161h-5.52a.231.231,0,0,0-.1.023l-1.92.936a.232.232,0,0,0-.062.372,1.766,1.766,0,0,0,1.251.519h10.514a1.773,1.773,0,0,0,1.773-1.773V120.514A1.775,1.775,0,0,0,203.353,118.74Z" transform="translate(-191.519 -118.74)"/>
      </g>
    </g>
  </g>
</svg>
