<svg xmlns="http://www.w3.org/2000/svg" width="26.674" height="26.5" viewBox="0 0 26.674 26.5">
  <path id="cash-svgrepo-com" d="M29.9,22.512l-.394-.247a3.248,3.248,0,0,0-2.562-.49,3.079,3.079,0,0,0-1.97,1.991l-.529-.272c-.912-.47-1.389-.477-1.785-.3a3.041,3.041,0,0,0-1.018.978l4.639,3.587a5.411,5.411,0,0,0,2.854-.045,6.86,6.86,0,0,0,2.911-1.543L33.8,21.842C32.256,20.623,30.848,21.329,29.9,22.512Zm2.99,4.308A8.053,8.053,0,0,1,29.4,28.733a7.815,7.815,0,0,1-1.154.214,6.639,6.639,0,0,0-.518,1.042,7.54,7.54,0,0,0,1.537,3.423l-.811.676a8.594,8.594,0,0,1-1.2-1.847,11.366,11.366,0,0,0,.721,4.065l-1,.338c-.878-2.567-1.177-5.2.056-7.674a4.645,4.645,0,0,1-1.177-.242l-.017-.006q-.363.346-.692.726c-1.777,2.061-2.756,4.8-2.244,6.936a8.386,8.386,0,0,0,1.473,3.147,7.672,7.672,0,0,1,2.905.338,12.262,12.262,0,0,1,1.306-.073,9.929,9.929,0,0,1,4.155.816,4.77,4.77,0,0,1,1.126.721,2.551,2.551,0,0,1,.135-.856,2.337,2.337,0,0,1-.816-1.7,2.68,2.68,0,0,1,1.475-2.2,2.074,2.074,0,0,1,.141-.743,2.39,2.39,0,0,1-.935-1.807,2.144,2.144,0,0,1,.394-1.216,2.113,2.113,0,0,1-.394-1.21,2.037,2.037,0,0,1,.1-.619,2.362,2.362,0,0,1-.89-1.768,2.335,2.335,0,0,1,.878-1.751,5.171,5.171,0,0,0-1.064-.647Zm6.272.129a8.511,8.511,0,0,0-3.693.766c-.912.456-1.34,1.019-1.34,1.5s.428,1.053,1.34,1.509a8.511,8.511,0,0,0,3.693.766,10.044,10.044,0,0,0,1.8-.163v-.957a4.757,4.757,0,0,0,1.847-.608v.991a2.014,2.014,0,0,0,1.4-1.537c0-.484-.428-1.047-1.34-1.5a8.538,8.538,0,0,0-3.7-.766ZM44.6,30.76a3.973,3.973,0,0,1-.653.552l.011,1.633C44.664,32.522,45,32.033,45,31.6A1.249,1.249,0,0,0,44.6,30.76Zm-9.672.867c.017.484.445,1.03,1.34,1.481a8.457,8.457,0,0,0,3.7.766,9.6,9.6,0,0,0,2.517-.327l.039-1.531a10.288,10.288,0,0,1-3.355.524A9.477,9.477,0,0,1,35,31.667c-.028-.011-.051-.028-.073-.039Zm.113,1.959a.964.964,0,0,0-.113.445c0,.49.428,1.053,1.34,1.509a8.542,8.542,0,0,0,3.7.76,9.7,9.7,0,0,0,2.083-.214V34.735a11.2,11.2,0,0,1-2.083.186,9.406,9.406,0,0,1-4.172-.873A4.727,4.727,0,0,1,35.037,33.587Zm9.847,0a5.425,5.425,0,0,1-.991.574v1.255c.749-.434,1.1-.94,1.1-1.385A.964.964,0,0,0,44.884,33.587Zm.422,2.072a4.274,4.274,0,0,1-.372.327v1.824a1.621,1.621,0,0,0,.861-1.222,1.333,1.333,0,0,0-.49-.929Zm-9.577.788a1.287,1.287,0,0,0-.011.141c0,.49.428,1.047,1.34,1.5a8.475,8.475,0,0,0,3.7.766,9.959,9.959,0,0,0,2.331-.27V36.9a10.362,10.362,0,0,1-3.125.45,9.485,9.485,0,0,1-4.172-.873C35.769,36.469,35.752,36.458,35.73,36.447Zm-.766,1.2a1.5,1.5,0,0,0-.721,1.126c0,.49.428,1.047,1.34,1.509a8.542,8.542,0,0,0,3.7.76,10.332,10.332,0,0,0,1.537-.113V39.909h-.062a9.4,9.4,0,0,1-4.172-.878,3.808,3.808,0,0,1-1.621-1.379Zm9.149,1.723a8.361,8.361,0,0,1-1.447.372v.681c.107-.045.214-.09.315-.141A2.912,2.912,0,0,0,44.113,39.374Zm.518,1.025a4.248,4.248,0,0,1-.738.58v1.61c.749-.428,1.1-.935,1.1-1.379A1.224,1.224,0,0,0,44.631,40.4ZM25,40.556a8.353,8.353,0,0,0-1.835.231,7.678,7.678,0,0,0-3.109,1.447c-.721.6-1,1.2-.918,1.638s.529.833,1.4,1.064a7.316,7.316,0,0,0,3.357-.062,9.474,9.474,0,0,0,1.447-.467V43.242a4,4,0,0,0,1.712-1.233v1.374c.681-.586.946-1.171.867-1.6s-.529-.833-1.4-1.058A5.892,5.892,0,0,0,25,40.556Zm3.637.293a1.929,1.929,0,0,1,.248,1.728,6.34,6.34,0,0,1,1.5.591,4.274,4.274,0,0,1,.681.467,3.862,3.862,0,0,0,1.239-.49v1.16c.906-.428,1.323-.951,1.323-1.368s-.417-.946-1.329-1.374A9.074,9.074,0,0,0,28.636,40.849Zm6.294.281a.346.346,0,0,0-.006.079c0,.49.428,1.047,1.34,1.509a8.542,8.542,0,0,0,3.7.76,10.073,10.073,0,0,0,2.083-.214V41.75a10.675,10.675,0,0,1-2.764.349,9.485,9.485,0,0,1-4.172-.873c-.062-.034-.124-.068-.18-.1Zm.158,2.1a1.033,1.033,0,0,0-.163.54c0,.49.428,1.047,1.34,1.509a8.542,8.542,0,0,0,3.7.76,10.073,10.073,0,0,0,2.083-.214V44.34a11.191,11.191,0,0,1-2.083.191,9.4,9.4,0,0,1-4.172-.878A4.568,4.568,0,0,1,35.088,43.231Zm9.746,0a5.7,5.7,0,0,1-.94.535v1.385c.749-.428,1.1-.935,1.1-1.379A1.033,1.033,0,0,0,44.833,43.231Zm-16.473.3a4.725,4.725,0,0,1-.687.7A8.591,8.591,0,0,1,24.126,45.9a10.384,10.384,0,0,1-1.5.231,2.535,2.535,0,0,0,.961.85,6.585,6.585,0,0,0,3.143.726,7.623,7.623,0,0,0,1.6-.169V46.367a4.79,4.79,0,0,0,1.847-.608v1.036a1.632,1.632,0,0,0,.833-1.261c0-.49-.366-1.013-1.137-1.447a5.742,5.742,0,0,0-1.514-.552Z" transform="translate(-19.122 -21.207)" fill="#000"/>
</svg>
