<svg xmlns="http://www.w3.org/2000/svg" width="52.224" height="46.498" viewBox="0 0 52.224 46.498">
  <g id="investment-svgrepo-com" transform="translate(-73.2 -96.77)">
    <path id="Path_45" data-name="Path 45" d="M125.424,171.6h-9.452l2.718,2.718-16.128,16.128L85.547,173.431,73.2,185.779l3.9,3.9,8.448-8.448,17.014,17.014,20.027-20.027,2.836,2.836Z" transform="translate(0 -63.778)" fill="#61e231"/>
    <path id="Path_46" data-name="Path 46" d="M189.408,115.088c-.059-2.186-1.831-8.507-3.013-10.339a10.413,10.413,0,0,1-1.6-5.435,1.4,1.4,0,0,1,1.063-1.359,10.25,10.25,0,0,1,3.781-.473c1.654.177,3.426,1,4.963.414.591-.236,1.063-.65,1.654-.886,1.3-.532,2.777-.059,4.135.236a15,15,0,0,0,5.849.118c.473-.059.945-.177,1.3.118a1.566,1.566,0,0,1,.3.354c.709,1.122-.059,2.6-.768,3.722-2.009,3.131-4.076,10.929-6.085,14.06" transform="translate(-95.117)" fill="#ffdf6f"/>
    <path id="Path_47" data-name="Path 47" d="M182.975,200.2c0,6.912-6.676,9.571-14.888,9.571S153.2,207.115,153.2,200.2s6.676-25.4,14.887-25.4C176.3,174.859,182.975,193.35,182.975,200.2Z" transform="translate(-68.185 -66.505)" fill="#ffcd1e"/>
    <path id="Path_48" data-name="Path 48" d="M230.1,268.356v1.95h-1.3v-1.89a7.462,7.462,0,0,1-3.367-.827v-2.481a5.293,5.293,0,0,0,1.536.768,8.739,8.739,0,0,0,1.831.414v-3.249a6.7,6.7,0,0,1-2.836-1.654,3.51,3.51,0,0,1-.768-2.186,3.213,3.213,0,0,1,1-2.363,3.911,3.911,0,0,1,2.6-1.122V254h1.3v1.6a6.784,6.784,0,0,1,2.836.591v2.422a6.461,6.461,0,0,0-2.836-.945v3.427a7,7,0,0,1,2.777,1.6,3.366,3.366,0,0,1-.118,4.549A3.965,3.965,0,0,1,230.1,268.356Zm-1.3-7.8v-2.836c-.827.177-1.241.591-1.241,1.3C227.563,259.671,227.977,260.144,228.8,260.558Zm1.3,3.013v2.718c.827-.118,1.3-.532,1.3-1.3C231.344,264.457,230.93,263.984,230.1,263.571Z" transform="translate(-129.551 -134.008)" fill="#161816"/>
  </g>
</svg>
