<svg xmlns="http://www.w3.org/2000/svg" width="48.88" height="33.129" viewBox="0 0 48.88 33.129">
  <g id="money-pay-svgrepo-com" transform="translate(0 -82.489)">
    <path id="Path_55" data-name="Path 55" d="M105.939,165.934a3.892,3.892,0,1,1,0-7.785h.024V154.3s-3.535-2.178-3.577-2.178H74.376c-.041,0-3.821,2.425-3.821,2.425v3.6h.024a3.892,3.892,0,1,1,0,7.785h-.024v3.847s3.535,2.178,3.577,2.178h28.011c.041,0,3.821-2.425,3.821-2.425v-3.6Z" transform="translate(-63.819 -62.988)" fill="#40a919"/>
    <g id="Group_50" data-name="Group 50" transform="translate(0 82.489)">
      <path id="Path_56" data-name="Path 56" d="M89.277,160.452H61.266c-.409,0-.409,0-2.513-1.289-.89-.546-1.776-1.091-1.776-1.091a1.358,1.358,0,0,1-.645-1.156v-3.847a1.358,1.358,0,0,1,1.358-1.358h.038a2.534,2.534,0,0,0,0-5.069,1.357,1.357,0,0,1-1.4-1.357v-3.6a1.358,1.358,0,0,1,.624-1.143s.946-.607,1.9-1.215c2.234-1.426,2.234-1.426,2.657-1.426H89.521c.409,0,.409,0,2.513,1.289.89.546,1.776,1.091,1.776,1.091a1.358,1.358,0,0,1,.645,1.156v3.847a1.358,1.358,0,0,1-1.358,1.358H93.06a2.534,2.534,0,0,0,0,5.069,1.357,1.357,0,0,1,1.4,1.357v3.6a1.358,1.358,0,0,1-.624,1.143s-.946.607-1.9,1.215C89.7,160.452,89.7,160.452,89.277,160.452Zm-27.645-2.715H88.9c.524-.328,1.68-1.065,2.842-1.81v-1.671a5.251,5.251,0,0,1,0-10.157v-1.9c-1.057-.65-2.1-1.288-2.584-1.579H61.89c-.524.328-1.68,1.065-2.842,1.81V144.1a5.251,5.251,0,0,1,0,10.157v1.9C60.1,156.807,61.147,157.445,61.632,157.736Z" transform="translate(-50.954 -132.613)" fill="#ffc61b"/>
      <path id="Path_57" data-name="Path 57" d="M47.522,115.618H1.358A1.358,1.358,0,0,1,0,114.261V83.847a1.358,1.358,0,0,1,1.358-1.358H47.522a1.358,1.358,0,0,1,0,2.715H2.715v27.7H46.164V95.116a1.358,1.358,0,0,1,2.716,0v19.144A1.358,1.358,0,0,1,47.522,115.618Z" transform="translate(0 -82.489)" fill="#ffc61b"/>
      <path id="Path_58" data-name="Path 58" d="M221.641,190.335a8.08,8.08,0,0,0-2.19-.875v-3.073a1.347,1.347,0,0,1,.967.617,1.961,1.961,0,0,1,.268.846.272.272,0,0,0,.27.245h1.276a.271.271,0,0,0,.271-.278,3.044,3.044,0,0,0-.9-2.188,3.581,3.581,0,0,0-2.155-.91v-.714a.272.272,0,0,0-.271-.271h-.7a.272.272,0,0,0-.272.271v.715a3.2,3.2,0,0,0-3.109,3.18,2.789,2.789,0,0,0,.847,2.151,4.77,4.77,0,0,0,2.262,1.028v3.471a1.562,1.562,0,0,1-1.191-.757,3.338,3.338,0,0,1-.288-1.35.271.271,0,0,0-.271-.254h-1.289a.272.272,0,0,0-.272.271,4.312,4.312,0,0,0,.445,2.132,3.432,3.432,0,0,0,2.866,1.631v1.037a.272.272,0,0,0,.272.272h.7a.272.272,0,0,0,.271-.272v-1.047a4.746,4.746,0,0,0,1.9-.612,3.3,3.3,0,0,0,1.393-3A2.586,2.586,0,0,0,221.641,190.335Zm-2.19,1.06a3.281,3.281,0,0,1,.874.387,1.334,1.334,0,0,1,.562,1.172,1.8,1.8,0,0,1-.216.9,1.507,1.507,0,0,1-1.22.748v-3.2Zm-2.489-3.578a1.641,1.641,0,0,1,.358-.993,1.286,1.286,0,0,1,.891-.451v2.807a2.353,2.353,0,0,1-.855-.432A1.143,1.143,0,0,1,216.962,187.817Z" transform="translate(-194.384 -174.068)" fill="#161816"/>
    </g>
  </g>
</svg>
