<svg xmlns="http://www.w3.org/2000/svg" width="41.597" height="43.426" viewBox="0 0 41.597 43.426">
  <g id="profits-graph-svgrepo-com" transform="translate(-10.785)">
    <circle id="Ellipse_8" data-name="Ellipse 8" cx="13.384" cy="13.384" r="13.384" transform="translate(17.869 7.085)" fill="#40a919"/>
    <g id="Group_49" data-name="Group 49" transform="translate(10.785)">
      <path id="Path_53" data-name="Path 53" d="M199.14,148.532v-3.812c1.522.267,1.75,1.11,1.785,1.606a.241.241,0,0,0,.241.225h1.662a.244.244,0,0,0,.242-.257c-.108-2.091-1.541-3.436-3.93-3.738v-1.282a.242.242,0,0,0-.242-.242h-1.662a.242.242,0,0,0-.242.242v1.282c-2.486.314-3.936,1.758-3.936,4s1.451,3.681,3.936,4v3.812c-1.522-.267-1.75-1.11-1.785-1.606a.241.241,0,0,0-.241-.225h-1.662a.244.244,0,0,0-.242.257c.108,2.091,1.541,3.436,3.93,3.738v1.282a.242.242,0,0,0,.242.242H198.9a.242.242,0,0,0,.242-.242v-1.282c2.486-.314,3.936-1.758,3.936-4S201.625,148.847,199.14,148.532Zm-2.146-.149c-1.79-.314-1.791-1.426-1.791-1.831s0-1.518,1.791-1.831Zm2.146,5.976V150.7c1.79.314,1.791,1.426,1.791,1.831S200.93,154.045,199.14,154.359Z" transform="translate(-177.598 -129.071)" fill="#161816"/>
      <path id="Path_54" data-name="Path 54" d="M52.371,28.857a1.274,1.274,0,0,0-.375-.9,1.292,1.292,0,0,0-.9-.371l-5,.011a1.273,1.273,0,0,0,0,2.546h0l2.18,0-7.955,7.118-2.274-3.8a14.608,14.608,0,0,0,3.57-2.624,15.027,15.027,0,0,0,2.862-4.046A14.658,14.658,0,0,0,20.89,10.1a1.273,1.273,0,0,0,1.8,1.8,12.111,12.111,0,1,1,14.046,19.36l-.172-.288a1.273,1.273,0,0,0-1.993-.246l-1.737,1.737A12.1,12.1,0,0,1,22.69,29.033a1.273,1.273,0,1,0-1.8,1.8,14.6,14.6,0,0,0,9.33,4.25l-2.9,2.9a1.278,1.278,0,0,0-.189-.062A17.925,17.925,0,1,1,49.176,20.469a1.273,1.273,0,1,0,2.546,0A20.467,20.467,0,1,0,25.258,40.044l-1.209,1.209a1.273,1.273,0,0,0,1.8,1.8l8.2-8.2a14.693,14.693,0,0,0,1.618-.41l3.259,5.446a1.273,1.273,0,0,0,1.942.295l8.962-8.019,0,1.7a1.273,1.273,0,0,0,1.273,1.27h0a1.273,1.273,0,0,0,1.27-1.276Z" transform="translate(-10.785)" fill="#ffc61b"/>
    </g>
  </g>
</svg>
