<svg xmlns="http://www.w3.org/2000/svg" width="265.721" height="68.489" viewBox="0 0 265.721 68.489">
  <g id="Group_33" data-name="Group 33" transform="translate(-153.105 -488.243)">
    <path id="Path_8" data-name="Path 8" d="M1076.837,663.442l-4.272-20.248-13-.449c-.405-.017-.806-.026-1.188-.026a16.68,16.68,0,0,0-4.155.453c.184-.251.329-.44.36-.483,3.856-4.122,14.414-6.847,21.412-.418C1081.621,647.442,1081.983,657.059,1076.837,663.442Z" transform="translate(-821.565 -136.936)" fill="#ffcd1e"/>
    <g id="AGRICULTURE-3" transform="translate(261.826 526.732)">
      <g id="Group_32" data-name="Group 32" transform="translate(0 0)" style="mix-blend-mode: normal;isolation: isolate">
        <text id="AGRICULTURE" transform="translate(0 23)" fill="#ffcd1e" font-size="26" font-family="SegoeUI, Segoe UI" letter-spacing="-0.019em" style="mix-blend-mode: normal;isolation: isolate"><tspan x="0" y="0">AGRICULTURE</tspan></text>
      </g>
    </g>
    <g id="Life_Changer-2" data-name="Life Changer-2" transform="translate(294.831 507.029)">
      <text id="Life_Changer" data-name="Life Changer" transform="translate(0 16)" fill="#40a919" font-size="15" font-family="SegoeUI, Segoe UI" style="mix-blend-mode: normal;isolation: isolate"><tspan x="0" y="0">Life Changer</tspan></text>
    </g>
    <path id="Path_9" data-name="Path 9" d="M327.14,738.5v-18.26l-.76-.466a13.476,13.476,0,0,1-4.07-2.435,16.542,16.542,0,0,1-5.042-7.583V747.11H341.55V738.5Zm-2.477-21.353c-3.926-3.345-5.786-7.448-5.234-12.4.012-.116.026-.234.042-.352h-2.556v.676c.13.266.246.539.352.813a10.722,10.722,0,0,1,.507,1.736A15.806,15.806,0,0,0,323,716.545a12.434,12.434,0,0,0,3.751,2.245C326.072,718.225,325.337,717.723,324.663,717.151Zm2.3-11.643a18.743,18.743,0,0,1-1.979,1.656c-.563.412-1.132.782-1.734,1.174-.312.2-.632.414-.959.634l-1.408.947a13.62,13.62,0,0,0,4.463,6.427c.334.283.688.551,1.061.834.239.181.486.368.73.563V705.337Zm-5.4-1.111c-.009.118-.014.234-.019.352a18.988,18.988,0,0,0,.155,3.346c.951-.639,1.829-1.178,2.658-1.783a17.957,17.957,0,0,0,1.87-1.563c.12-.116.236-.232.349-.352Z" transform="translate(-149.35 -197.072)" fill="#ffcd1e"/>
    <path id="Path_10" data-name="Path 10" d="M328.3,720.787c-3.926-3.345-5.786-7.448-5.233-12.4H320.9v1.137a10.72,10.72,0,0,1,.507,1.736,15.806,15.806,0,0,0,5.228,8.923,12.435,12.435,0,0,0,3.751,2.245C329.707,721.861,328.973,721.359,328.3,720.787Zm2.3-11.643a18.735,18.735,0,0,1-1.979,1.656c-.563.412-1.132.782-1.734,1.174-.312.2-.632.414-.959.634l-1.408.947a13.621,13.621,0,0,0,4.463,6.427c.334.283.688.551,1.061.834.239.181.486.368.731.563V708.973Zm-5.417-.759a18.984,18.984,0,0,0,.155,3.346c.951-.639,1.829-1.178,2.658-1.783a17.946,17.946,0,0,0,1.87-1.563Zm5.591,33.755V723.88l-.76-.466a13.479,13.479,0,0,1-4.07-2.435,16.542,16.542,0,0,1-5.042-7.584v37.351h24.282V742.14Z" transform="translate(-152.986 -200.708)" fill="#ffcd1e"/>
    <path id="Path_11" data-name="Path 11" d="M653.926,741.881v8.872H640.451q-6,0-9.006-2.7t-3-7.972V719.066q0-5.269,3-7.972t9.006-2.7h13.475v8.872H639.383a.825.825,0,0,0-.934.934v22.748a.825.825,0,0,0,.934.934Z" transform="translate(-433.375 -200.715)" fill="#40a919"/>
    <path id="Path_12" data-name="Path 12" d="M962.634,721.051l-3.441-16.311-9.606-.333a11.862,11.862,0,0,0-4.851.593l-.018.007a5.577,5.577,0,0,0-2.8,2.5,20.5,20.5,0,0,0-1.8,4.9L931.441,747.1h9.207l2.119-9.406h13.69l1.868,9.406h9.807Zm-17.9,8.172,3.448-15.076a1.948,1.948,0,0,1,.3-.734.8.8,0,0,1,.634-.2h2.535l3.139,16.01Z" transform="translate(-709.624 -197.062)" fill="#40a919"/>
    <path id="Path_13" data-name="Path 13" d="M962.634,721.051l-3.441-16.311-9.606-.333a11.862,11.862,0,0,0-4.851.593l-.018.007a5.577,5.577,0,0,0-2.8,2.5,20.5,20.5,0,0,0-1.8,4.9L931.441,747.1h9.207l2.119-9.406h13.69l1.868,9.406h9.807Zm-17.9,8.172,3.448-15.076a1.948,1.948,0,0,1,.3-.734.8.8,0,0,1,.634-.2h2.535l3.139,16.01Z" transform="translate(-709.624 -197.062)" fill="#40a919"/>
    <path id="Path_14" data-name="Path 14" d="M962.634,721.051l-3.441-16.311-9.606-.333a11.862,11.862,0,0,0-4.851.593l-.018.007a5.577,5.577,0,0,0-2.8,2.5,20.5,20.5,0,0,0-1.8,4.9L931.441,747.1h9.207l2.119-9.406h13.69l1.868,9.406h9.807Zm-17.9,8.172,3.448-15.076a1.948,1.948,0,0,1,.3-.734.8.8,0,0,1,.634-.2h2.535l3.139,16.01Z" transform="translate(-709.624 -197.062)" fill="#40a919"/>
    <path id="Path_15" data-name="Path 15" d="M962.634,721.051l-3.441-16.311-9.606-.333a11.862,11.862,0,0,0-4.851.593l-.018.007a5.577,5.577,0,0,0-2.8,2.5,20.5,20.5,0,0,0-1.8,4.9L931.441,747.1h9.207l2.119-9.406h13.69l1.868,9.406h9.807Zm-7.71,8.839-.13-.667H944.737l-.153.667-.533-.667h.686l3.448-15.076a1.948,1.948,0,0,1,.3-.734.8.8,0,0,1,.634-.2h2.535l3.139,16.01h.664Z" transform="translate(-709.624 -197.062)" fill="#40a919"/>
    <path id="Path_16" data-name="Path 16" d="M183.216,488.243c-.2.345-.334.6-.484.857a19.025,19.025,0,0,0-2.287,8.62,33.389,33.389,0,0,1-.574,4.825c-.021.1-.042.192-.067.285-.009.037-.018.074-.028.111q-.032.129-.069.253c-.011.037-.021.074-.033.113q-.042.14-.09.275c-.037.111-.077.222-.118.329s-.079.2-.12.294c0,.009-.009.019-.014.03-.09.213-.188.419-.294.621-.053.1-.107.2-.164.3s-.115.2-.174.292-.12.194-.183.287c-.123.188-.255.373-.393.553-.069.092-.141.181-.213.269s-.143.173-.216.257c0,0,0,0,0,0-.048.056-.1.111-.144.164-.1.116-.208.231-.319.343s-.229.236-.349.352a17.954,17.954,0,0,1-1.87,1.563c-.829.606-1.708,1.144-2.658,1.783a18.986,18.986,0,0,1-.155-3.346c.005-.118.011-.234.019-.352.009-.137.018-.273.03-.408s.025-.269.039-.4.03-.268.048-.4.032-.25.051-.373a.1.1,0,0,1,.005-.032q.026-.18.058-.359.019-.119.042-.238.026-.148.058-.3c0-.025.009-.047.014-.072.019-.1.04-.2.065-.3s.047-.217.074-.324.046-.187.072-.28c.04-.162.084-.324.13-.484.032-.107.063-.217.1-.324.007-.025.014-.049.023-.076.026-.086.054-.172.083-.259.014-.046.028-.091.046-.137.032-.1.065-.194.1-.291s.063-.18.1-.269.067-.187.1-.28.079-.2.12-.3c.03-.076.06-.151.092-.227.121-.294.252-.588.387-.878.037-.083.076-.166.116-.246.079-.165.16-.331.245-.495.037-.074.074-.148.113-.22.049-.093.1-.188.15-.283.065-.122.13-.241.2-.363.047-.084.095-.169.144-.253a30.8,30.8,0,0,1,1.915-2.931l-.164-.107c-.678.709-1.389,1.392-2.035,2.137a18.847,18.847,0,0,0-4.42,8.627c-.026.129-.049.255-.072.38s-.039.224-.056.335c-.023.146-.044.292-.063.437-.016.118-.03.236-.042.352-.553,4.954,1.308,9.057,5.234,12.4.674.572,1.408,1.074,2.091,1.639a12.435,12.435,0,0,1-3.751-2.245,15.806,15.806,0,0,1-5.228-8.923,10.722,10.722,0,0,0-.507-1.736c-.106-.275-.222-.547-.352-.813l-.016-.033a6.329,6.329,0,0,0-4.23-2.931,9.89,9.89,0,0,0-4.466-.1,2.2,2.2,0,0,0-.44.183,10.561,10.561,0,0,1,8.039,2.551c-1.995,1.1-3.957,1.834-6.186,1.063a7.785,7.785,0,0,1-1.178-.5c-1.871-.986-3.753-1.954-5.985-1.862a16.2,16.2,0,0,1,6.364-2.852,8.829,8.829,0,0,1,5.658.563,19.693,19.693,0,0,1,2.544,1.743,3.574,3.574,0,0,1,.419.4c.285-1.172.486-2.313.836-3.419a21.05,21.05,0,0,1,6.02-8.867,39.7,39.7,0,0,1,7.614-5.434A5.519,5.519,0,0,1,183.216,488.243Z" transform="translate(0 0)" fill="#40a919"/>
    <path id="Path_17" data-name="Path 17" d="M183.216,488.243c-.2.345-.334.6-.484.857a19.025,19.025,0,0,0-2.287,8.62,33.389,33.389,0,0,1-.574,4.825c-.021.1-.042.192-.067.285-.009.037-.018.074-.028.111q-.032.129-.069.253c-.011.037-.021.074-.033.113q-.042.14-.09.275c-.037.111-.077.222-.118.329s-.079.2-.12.294c0,.009-.009.019-.014.03-.09.213-.188.419-.294.621-.053.1-.107.2-.164.3s-.115.2-.174.292-.12.194-.183.287c-.123.188-.255.373-.393.553-.069.092-.141.181-.213.269s-.143.173-.216.257c0,0,0,0,0,0-.048.056-.1.111-.144.164-.1.116-.208.231-.319.343s-.229.236-.349.352a17.954,17.954,0,0,1-1.87,1.563c-.829.606-1.708,1.144-2.658,1.783a18.986,18.986,0,0,1-.155-3.346c.005-.118.011-.234.019-.352.009-.137.018-.273.03-.408s.025-.269.039-.4.03-.268.048-.4.032-.25.051-.373a.1.1,0,0,1,.005-.032q.026-.18.058-.359.019-.119.042-.238.026-.148.058-.3c0-.025.009-.047.014-.072.019-.1.04-.2.065-.3s.047-.217.074-.324.046-.187.072-.28c.04-.162.084-.324.13-.484.032-.107.063-.217.1-.324.007-.025.014-.049.023-.076.026-.086.054-.172.083-.259.014-.046.028-.091.046-.137.032-.1.065-.194.1-.291s.063-.18.1-.269.067-.187.1-.28.079-.2.12-.3c.03-.076.06-.151.092-.227.121-.294.252-.588.387-.878.037-.083.076-.166.116-.246.079-.165.16-.331.245-.495.037-.074.074-.148.113-.22.049-.093.1-.188.15-.283.065-.122.13-.241.2-.363.047-.084.095-.169.144-.253a30.8,30.8,0,0,1,1.915-2.931l-.164-.107c-.678.709-1.389,1.392-2.035,2.137a18.847,18.847,0,0,0-4.42,8.627c-.026.129-.049.255-.072.38s-.039.224-.056.335c-.023.146-.044.292-.063.437-.016.118-.03.236-.042.352-.553,4.954,1.308,9.057,5.234,12.4.674.572,1.408,1.074,2.091,1.639a12.435,12.435,0,0,1-3.751-2.245,15.806,15.806,0,0,1-5.228-8.923,10.722,10.722,0,0,0-.507-1.736c-.106-.275-.222-.547-.352-.813l-.016-.033a6.329,6.329,0,0,0-4.23-2.931,9.89,9.89,0,0,0-4.466-.1,2.2,2.2,0,0,0-.44.183,10.561,10.561,0,0,1,8.039,2.551c-1.995,1.1-3.957,1.834-6.186,1.063a7.785,7.785,0,0,1-1.178-.5c-1.871-.986-3.753-1.954-5.985-1.862a16.2,16.2,0,0,1,6.364-2.852,8.829,8.829,0,0,1,5.658.563,19.693,19.693,0,0,1,2.544,1.743,3.574,3.574,0,0,1,.419.4c.285-1.172.486-2.313.836-3.419a21.05,21.05,0,0,1,6.02-8.867,39.7,39.7,0,0,1,7.614-5.434A5.519,5.519,0,0,1,183.216,488.243Z" transform="translate(0 0)" fill="#40a919"/>
    <path id="Path_18" data-name="Path 18" d="M182.559,488.5a39.7,39.7,0,0,0-7.614,5.434,21.05,21.05,0,0,0-6.02,8.867c-.35,1.106-.551,2.246-.836,3.419a3.574,3.574,0,0,0-.419-.4,19.693,19.693,0,0,0-2.544-1.743,8.829,8.829,0,0,0-5.658-.563,16.2,16.2,0,0,0-6.364,2.852c2.232-.092,4.114.877,5.985,1.862a7.785,7.785,0,0,0,1.178.5c2.229.771,4.191.04,6.186-1.063a10.561,10.561,0,0,0-8.039-2.551,2.2,2.2,0,0,1,.44-.183,9.89,9.89,0,0,1,4.466.1,6.329,6.329,0,0,1,4.23,2.931l.016.033c.13.266.246.539.352.813a10.722,10.722,0,0,1,.507,1.736,15.806,15.806,0,0,0,5.228,8.923,12.435,12.435,0,0,0,3.751,2.245c-.683-.565-1.417-1.067-2.091-1.639-3.926-3.345-5.786-7.448-5.234-12.4.012-.116.026-.234.042-.352.019-.144.04-.29.063-.437.018-.111.037-.222.056-.335s.046-.252.072-.38a18.847,18.847,0,0,1,4.42-8.627c.646-.745,1.357-1.428,2.035-2.137l.164.107a30.8,30.8,0,0,0-1.915,2.931c-.049.084-.1.169-.144.253-.069.121-.134.241-.2.363-.051.1-.1.19-.15.283-.039.072-.076.146-.113.22-.085.164-.165.329-.245.495-.041.081-.079.164-.116.246-.135.29-.266.584-.387.878-.032.076-.062.151-.092.227-.041.1-.081.2-.12.3s-.07.187-.1.28-.065.179-.1.269-.067.194-.1.291c-.018.046-.032.091-.046.137-.028.086-.056.173-.083.259-.009.026-.016.051-.023.076-.033.107-.065.216-.1.324-.046.16-.09.322-.13.484-.026.093-.049.187-.072.28s-.051.217-.074.324-.046.2-.065.3c-.005.025-.011.047-.014.072q-.032.148-.058.3-.024.119-.042.238-.032.18-.058.359a.1.1,0,0,0-.005.032c-.019.123-.035.248-.051.373s-.033.268-.048.4-.028.269-.039.4-.021.271-.03.408c-.009.118-.014.234-.019.352a18.986,18.986,0,0,0,.155,3.346c.951-.639,1.829-1.178,2.658-1.783a17.954,17.954,0,0,0,1.87-1.563c.12-.116.236-.232.349-.352s.217-.227.319-.343c.048-.053.1-.107.144-.164,0,0,0,0,0,0,.074-.085.146-.171.216-.257s.144-.178.213-.269c.137-.179.269-.364.393-.553.063-.093.123-.19.183-.287s.118-.194.174-.292.111-.2.164-.3c.106-.2.2-.408.294-.621.005-.011.011-.021.014-.03.04-.1.081-.194.12-.294s.081-.218.118-.329q.047-.135.09-.275c.012-.039.023-.076.033-.113q.037-.124.069-.253c.011-.037.019-.074.028-.111.025-.093.046-.188.067-.285a33.389,33.389,0,0,0,.574-4.825,19.025,19.025,0,0,1,2.287-8.62c.15-.254.289-.512.484-.857A5.519,5.519,0,0,0,182.559,488.5Z" transform="translate(0 0)" fill="#40a919"/>
    <path id="Path_19" data-name="Path 19" d="M183.216,488.243c-.2.345-.334.6-.484.857a19.025,19.025,0,0,0-2.287,8.62,33.389,33.389,0,0,1-.574,4.825c-.021.1-.042.192-.067.285-.009.037-.018.074-.028.111q-.032.129-.069.253c-.011.037-.021.074-.033.113q-.042.14-.09.275c-.037.111-.077.222-.118.329s-.079.2-.12.294c0,.009-.009.019-.014.03-.09.213-.188.419-.294.621-.053.1-.107.2-.164.3s-.115.2-.174.292-.12.194-.183.287c-.123.188-.255.373-.393.553-.069.092-.141.181-.213.269s-.143.173-.216.257c0,0,0,0,0,0-.048.056-.1.111-.144.164-.1.116-.208.231-.319.343s-.229.236-.349.352a17.954,17.954,0,0,1-1.87,1.563c-.829.606-1.708,1.144-2.658,1.783a18.986,18.986,0,0,1-.155-3.346c.005-.118.011-.234.019-.352.009-.137.018-.273.03-.408s.025-.269.039-.4.03-.268.048-.4.032-.25.051-.373a.1.1,0,0,1,.005-.032q.026-.18.058-.359.019-.119.042-.238.026-.148.058-.3c0-.025.009-.047.014-.072.019-.1.04-.2.065-.3s.047-.217.074-.324.046-.187.072-.28c.04-.162.084-.324.13-.484.032-.107.063-.217.1-.324.007-.025.014-.049.023-.076.026-.086.054-.172.083-.259.014-.046.028-.091.046-.137.032-.1.065-.194.1-.291s.063-.18.1-.269.067-.187.1-.28.079-.2.12-.3c.03-.076.06-.151.092-.227.121-.294.252-.588.387-.878.037-.083.076-.166.116-.246.079-.165.16-.331.245-.495.037-.074.074-.148.113-.22.049-.093.1-.188.15-.283.065-.122.13-.241.2-.363.047-.084.095-.169.144-.253a30.8,30.8,0,0,1,1.915-2.931l-.164-.107c-.678.709-1.389,1.392-2.035,2.137a18.847,18.847,0,0,0-4.42,8.627c-.026.129-.049.255-.072.38s-.039.224-.056.335c-.023.146-.044.292-.063.437-.016.118-.03.236-.042.352-.553,4.954,1.308,9.057,5.234,12.4.674.572,1.408,1.074,2.091,1.639a12.435,12.435,0,0,1-3.751-2.245,15.806,15.806,0,0,1-5.228-8.923,10.722,10.722,0,0,0-.507-1.736c-.106-.275-.222-.547-.352-.813l-.016-.033a6.329,6.329,0,0,0-4.23-2.931,9.89,9.89,0,0,0-4.466-.1,2.2,2.2,0,0,0-.44.183,10.561,10.561,0,0,1,8.039,2.551c-1.995,1.1-3.957,1.834-6.186,1.063a7.785,7.785,0,0,1-1.178-.5c-1.871-.986-3.753-1.954-5.985-1.862a16.2,16.2,0,0,1,6.364-2.852,8.829,8.829,0,0,1,5.658.563,19.693,19.693,0,0,1,2.544,1.743,3.574,3.574,0,0,1,.419.4c.285-1.172.486-2.313.836-3.419a21.05,21.05,0,0,1,6.02-8.867,39.7,39.7,0,0,1,7.614-5.434A5.519,5.519,0,0,1,183.216,488.243Z" transform="translate(0 0)" fill="#40a919"/>
    <line id="Line_1" data-name="Line 1" x1="0.76" y1="0.466" transform="translate(177.03 522.705)" fill="none"/>
    <path id="Path_20" data-name="Path 20" d="M1030.746,607.617a12.15,12.15,0,0,1-1.22-1.233q-.565-.649-1.071-1.342t-.959-1.424a11.983,11.983,0,0,1-.808-1.535,11.985,11.985,0,0,1,1.221,1.232q.565.649,1.071,1.342t.958,1.425A12.164,12.164,0,0,1,1030.746,607.617Z" transform="translate(-796.463 -103.79)" fill="#ffce1e"/>
    <path id="Path_21" data-name="Path 21" d="M998.029,636.751a12.137,12.137,0,0,1-1.486-.9q-.707-.491-1.368-1.037t-1.279-1.145a11.977,11.977,0,0,1-1.161-1.289,12,12,0,0,1,1.486.894q.707.491,1.368,1.038t1.279,1.146A12.136,12.136,0,0,1,998.029,636.751Z" transform="translate(-765.508 -131.416)" fill="#ffce1e"/>
    <path id="Path_22" data-name="Path 22" d="M1059.62,586.491a12.146,12.146,0,0,1-1.125-1.32q-.515-.69-.968-1.418t-.85-1.492a11.994,11.994,0,0,1-.692-1.591,11.98,11.98,0,0,1,1.125,1.32q.515.69.968,1.419t.849,1.492A12.125,12.125,0,0,1,1059.62,586.491Z" transform="translate(-823.175 -84.268)" fill="#ffce1e"/>
    <path id="Path_23" data-name="Path 23" d="M1093.4,571.873a12.145,12.145,0,0,1-.807-1.535q-.351-.786-.633-1.6t-.5-1.642a11.986,11.986,0,0,1-.325-1.7,12,12,0,0,1,.808,1.535q.351.786.632,1.6t.5,1.643A12.147,12.147,0,0,1,1093.4,571.873Z" transform="translate(-855.218 -70.341)" fill="#ffce1e"/>
    <path id="Path_24" data-name="Path 24" d="M1133.068,560.081a12.13,12.13,0,0,1-.488-1.664c-.126-.56-.227-1.123-.306-1.69s-.136-1.136-.167-1.709a11.992,11.992,0,0,1,.017-1.734,12.009,12.009,0,0,1,.489,1.664q.189.84.3,1.69c.078.566.135,1.136.166,1.709A12.166,12.166,0,0,1,1133.068,560.081Z" transform="translate(-892.555 -59.299)" fill="#ffce1e"/>
    <path id="Path_25" data-name="Path 25" d="M1170.768,551.628a12.156,12.156,0,0,1-.254-1.716c-.047-.572-.069-1.144-.069-1.716s.022-1.144.07-1.716a11.966,11.966,0,0,1,.256-1.715,11.985,11.985,0,0,1,.255,1.716q.071.858.069,1.716c0,.572-.023,1.144-.071,1.716A12.137,12.137,0,0,1,1170.768,551.628Z" transform="translate(-927.529 -51.533)" fill="#ffce1e"/>
    <path id="Path_26" data-name="Path 26" d="M1208.109,555.932a12.675,12.675,0,0,1,.143-1.766c.084-.58.193-1.155.323-1.725s.282-1.135.459-1.694a12.505,12.505,0,0,1,.641-1.652,12.51,12.51,0,0,1-.142,1.766q-.126.871-.324,1.725t-.46,1.693A12.677,12.677,0,0,1,1208.109,555.932Z" transform="translate(-961.868 -55.48)" fill="#ffce1e"/>
    <path id="Path_27" data-name="Path 27" d="M1236.636,564.446a12.654,12.654,0,0,1,.369-1.733q.237-.847.542-1.669t.673-1.62a12.488,12.488,0,0,1,.848-1.556,12.517,12.517,0,0,1-.369,1.733q-.237.847-.543,1.669t-.674,1.62A12.686,12.686,0,0,1,1236.636,564.446Z" transform="translate(-987.877 -63.478)" fill="#ffce1e"/>
    <path id="Path_28" data-name="Path 28" d="M1261.751,572.794a12.666,12.666,0,0,1,.483-1.7q.293-.83.652-1.629t.779-1.572a12.5,12.5,0,0,1,.949-1.5,12.5,12.5,0,0,1-.483,1.7q-.293.829-.653,1.629t-.78,1.572A12.662,12.662,0,0,1,1261.751,572.794Z" transform="translate(-1010.775 -71.25)" fill="#ffce1e"/>
    <path id="Path_29" data-name="Path 29" d="M1283.178,591.975a12.679,12.679,0,0,1,.7-1.629q.4-.786.854-1.533t.973-1.46a12.5,12.5,0,0,1,1.132-1.363,12.5,12.5,0,0,1-.7,1.63q-.4.786-.854,1.533t-.974,1.46A12.655,12.655,0,0,1,1283.178,591.975Z" transform="translate(-1030.31 -89.117)" fill="#ffce1e"/>
    <path id="Path_30" data-name="Path 30" d="M1303.877,616.423a12.68,12.68,0,0,1,1.1-1.391q.587-.655,1.225-1.257t1.321-1.155a12.519,12.519,0,0,1,1.449-1.02,12.5,12.5,0,0,1-1.1,1.391q-.588.655-1.226,1.256t-1.321,1.155A12.668,12.668,0,0,1,1303.877,616.423Z" transform="translate(-1049.182 -112.467)" fill="#ffce1e"/>
    <path id="Path_31" data-name="Path 31" d="M1330.235,650.5a12.659,12.659,0,0,1,1.318-1.184q.69-.545,1.421-1.03t1.5-.914a12.5,12.5,0,0,1,1.6-.759,12.512,12.512,0,0,1-1.318,1.184q-.69.545-1.421,1.029t-1.5.913A12.67,12.67,0,0,1,1330.235,650.5Z" transform="translate(-1073.213 -144.385)" fill="#ffce1e"/>
    <path id="Path_32" data-name="Path 32" d="M1348.481,686.179a12.656,12.656,0,0,1,1.5-.946q.772-.422,1.573-.777t1.63-.65a12.5,12.5,0,0,1,1.706-.48,12.51,12.51,0,0,1-1.5.947q-.772.422-1.574.777t-1.63.649A12.683,12.683,0,0,1,1348.481,686.179Z" transform="translate(-1089.848 -177.861)" fill="#ffce1e"/>
    <path id="Path_33" data-name="Path 33" d="M1357.825,714.056a12.659,12.659,0,0,1,1.64-.671c.556-.188,1.118-.35,1.685-.492s1.14-.261,1.718-.357a12.5,12.5,0,0,1,1.763-.176,12.507,12.507,0,0,1-1.64.672q-.833.281-1.685.491t-1.719.356A12.672,12.672,0,0,1,1357.825,714.056Z" transform="translate(-1098.367 -204.333)" fill="#ffce1e"/>
    <path id="Path_34" data-name="Path 34" d="M1360.448,746.445a12.655,12.655,0,0,1,1.737-.351c.581-.08,1.163-.134,1.747-.167s1.168-.043,1.755-.028a12.481,12.481,0,0,1,1.765.158,12.518,12.518,0,0,1-1.737.352q-.871.12-1.747.166c-.584.032-1.168.042-1.755.027A12.658,12.658,0,0,1,1360.448,746.445Z" transform="translate(-1100.759 -234.904)" fill="#ffce1e"/>
    <path id="Path_35" data-name="Path 35" d="M1365.13,774.68a9.12,9.12,0,0,1,1.487-.191c.494-.026.987-.027,1.479-.007s.983.064,1.473.133a8.991,8.991,0,0,1,1.465.319,9,9,0,0,1-1.487.192c-.494.026-.987.027-1.479.006s-.983-.065-1.473-.134A9.11,9.11,0,0,1,1365.13,774.68Z" transform="translate(-1105.027 -260.957)" fill="#ffce1e"/>
    <path id="Path_36" data-name="Path 36" d="M1367.682,805.592a8.919,8.919,0,0,1,1.483.013c.488.041.97.107,1.45.194s.954.2,1.425.332a8.8,8.8,0,0,1,1.391.515,8.8,8.8,0,0,1-1.483-.012q-.731-.061-1.449-.2c-.479-.088-.954-.2-1.424-.333A8.91,8.91,0,0,1,1367.682,805.592Z" transform="translate(-1107.354 -289.31)" fill="#ffce1e"/>
    <path id="Path_37" data-name="Path 37" d="M1365.947,835.92a8.113,8.113,0,0,1,1.413.037,13.693,13.693,0,0,1,1.375.218,13.434,13.434,0,0,1,1.347.355,8.016,8.016,0,0,1,1.308.537,8.016,8.016,0,0,1-1.414-.036,13.485,13.485,0,0,1-1.375-.219,13.689,13.689,0,0,1-1.346-.355A8.115,8.115,0,0,1,1365.947,835.92Z" transform="translate(-1105.772 -316.969)" fill="#ffce1e"/>
    <path id="Path_38" data-name="Path 38" d="M1363.121,854.028a8.892,8.892,0,0,1,1.434.369c.463.157.915.337,1.358.537s.877.42,1.3.664a8.757,8.757,0,0,1,1.224.834,8.769,8.769,0,0,1-1.435-.368q-.694-.235-1.358-.538t-1.3-.665A8.893,8.893,0,0,1,1363.121,854.028Z" transform="translate(-1103.196 -333.493)" fill="#ffce1e"/>
    <path id="Path_39" data-name="Path 39" d="M1357.825,874.516a6.279,6.279,0,0,1,1.171.421,10.511,10.511,0,0,1,1.074.578,10.333,10.333,0,0,1,1,.7,6.2,6.2,0,0,1,.9.856,6.21,6.21,0,0,1-1.171-.42,10.341,10.341,0,0,1-1.073-.579,10.51,10.51,0,0,1-1-.7A6.286,6.286,0,0,1,1357.825,874.516Z" transform="translate(-1098.367 -352.173)" fill="#ffce1e"/>
    <path id="Path_40" data-name="Path 40" d="M1343.936,899.527a5.563,5.563,0,0,1,1.105.381,9.214,9.214,0,0,1,1.009.538,9.052,9.052,0,0,1,.935.657.6.6,0,1,1-.268.435,9.054,9.054,0,0,1-1.008-.539,9.271,9.271,0,0,1-.935-.658A5.568,5.568,0,0,1,1343.936,899.527Z" transform="translate(-1085.704 -374.976)" fill="#ffce1e"/>
    <path id="Path_41" data-name="Path 41" d="M1330.777,923.511a4.405,4.405,0,0,1,.966.376,7.193,7.193,0,0,1,.859.526,7.052,7.052,0,0,1,.778.64.535.535,0,1,1-.3.416,7.07,7.07,0,0,1-.858-.527,7.181,7.181,0,0,1-.777-.641A4.413,4.413,0,0,1,1330.777,923.511Z" transform="translate(-1073.707 -396.843)" fill="#ffce1e"/>
    <path id="Path_42" data-name="Path 42" d="M1316.276,932.528a3.087,3.087,0,0,1,.781.362,4.821,4.821,0,0,1,.657.5,4.727,4.727,0,0,1,.564.6.451.451,0,1,1-.343.379,4.742,4.742,0,0,1-.657-.5,4.81,4.81,0,0,1-.563-.6A3.09,3.09,0,0,1,1316.276,932.528Z" transform="translate(-1060.486 -405.064)" fill="#ffce1e"/>
    <line id="Line_2" data-name="Line 2" x1="25.832" transform="translate(268.998 519.578)" fill="none" stroke="#40a919" stroke-width="1"/>
  </g>
</svg>
