<svg xmlns="http://www.w3.org/2000/svg" width="69.575" height="69.564" viewBox="0 0 69.575 69.564">
  <path id="Icon_awesome-upload" data-name="Icon awesome-upload" d="M40.223,52.176H29.352a3.253,3.253,0,0,1-3.261-3.261V26.086H14.173a2.713,2.713,0,0,1-1.916-4.634L32.926.77a2.633,2.633,0,0,1,3.71,0L57.318,21.452A2.713,2.713,0,0,1,55.4,26.086H43.484V48.915A3.253,3.253,0,0,1,40.223,52.176Zm29.352-1.087V66.308a3.253,3.253,0,0,1-3.261,3.261H3.261A3.253,3.253,0,0,1,0,66.308V51.089a3.253,3.253,0,0,1,3.261-3.261H21.742v1.087a7.615,7.615,0,0,0,7.61,7.61H40.223a7.615,7.615,0,0,0,7.61-7.61V47.828H66.313A3.253,3.253,0,0,1,69.575,51.089ZM52.725,63.047a2.718,2.718,0,1,0-2.718,2.718A2.726,2.726,0,0,0,52.725,63.047Zm8.7,0A2.718,2.718,0,1,0,58.7,65.765,2.726,2.726,0,0,0,61.421,63.047Z" transform="translate(0 -0.005)" fill="#373636"/>
</svg>
