<svg xmlns="http://www.w3.org/2000/svg" width="25.946" height="25.946" viewBox="0 0 25.946 25.946">
  <path id="Icon_awesome-user-circle" data-name="Icon awesome-user-circle" d="M12.973.563A12.973,12.973,0,1,0,25.946,13.536,12.971,12.971,0,0,0,12.973.563Zm0,5.022a4.6,4.6,0,1,1-4.6,4.6A4.6,4.6,0,0,1,12.973,5.584Zm0,18A10.024,10.024,0,0,1,5.31,20.012a5.832,5.832,0,0,1,5.153-3.128,1.28,1.28,0,0,1,.371.058,6.926,6.926,0,0,0,2.14.361,6.9,6.9,0,0,0,2.14-.361,1.28,1.28,0,0,1,.371-.058,5.832,5.832,0,0,1,5.153,3.128A10.024,10.024,0,0,1,12.973,23.579Z" transform="translate(0 -0.563)"/>
</svg>
