<svg xmlns="http://www.w3.org/2000/svg" width="22.505" height="19.692" viewBox="0 0 22.505 19.692">
  <path id="Icon_awesome-wallet" data-name="Icon awesome-wallet" d="M20.272,6.47H3.516a.7.7,0,0,1,0-1.407H20.4a.7.7,0,0,0,.7-.7,2.11,2.11,0,0,0-2.11-2.11H2.813A2.813,2.813,0,0,0,0,5.063V19.129a2.813,2.813,0,0,0,2.813,2.813H20.272a2.176,2.176,0,0,0,2.233-2.11V8.58A2.176,2.176,0,0,0,20.272,6.47Zm-1.987,9.143a1.407,1.407,0,1,1,1.407-1.407A1.407,1.407,0,0,1,18.285,15.612Z" transform="translate(0 -2.25)" fill="#757575"/>
</svg>
